{"title":"Kung.Fu.Panda.3.2016.WEBRip.480p.x264.AAC-VYTO [P2PDL]","uid":13976170,"size":325563469,"categoryP":"video","categoryS":"movies","magnet":"?xt=urn:btih:773fc457dd59283730ef1a6d031a3fb29ea15d9d&amp;dn=Kung.Fu.Panda.3.2016.WEBRip.480p.x264.AAC-VYTO+%5BP2PDL%5D&amp;tr=udp%3A%2F%2Ftracker.leechers-paradise.org%3A6969&amp;tr=udp%3A%2F%2Fzer0day.ch%3A1337&amp;tr=udp%3A%2F%2Fopen.demonii.com%3A1337&amp;tr=udp%3A%2F%2Ftracker.coppersurfer.tk%3A6969&amp;tr=udp%3A%2F%2Fexodus.desync.com%3A6969","seeders":0,"leechers":3,"uploader":"VYTOP2PDL","files":6,"time":1458653139,"description":"____    ____ ____    ____ .___________.  ______   \r\n     /   /      /   / |           | /  __    \r\n    /   /      /   /  `---|  |----`|  |  |  | \r\n        /     _    _/       |  |     |  |  |  | \r\n       /        |  |         |  |     |  `--'  | \r\n    __/         |__|         |__|      ______/  \r\n                                                  \r\nPresenting Small Encodes with quality for years!\r\n                                                                                                   \r\n                                                                                                   \r\n\r\n\r\nKung.Fu.Panda.3.2016.WEBRip.480p.x264.AAC-VYTO\r\n\r\n\r\nGenre: Animation, Action, Adventure  \nhttp://www.imdb.com/title/tt2267968/\r\n\r\n\r\nFormat                                   : MPEG-4\r\nFile size                                : 302 MiB\r\nDuration                                 : 1h 19mn\r\nOverall bit rate                         : 531 Kbps\r\n\r\nVideo\r\nFormat                                   : AVC\r\nBit rate                                 : 497 Kbps\r\nWidth                                    : 720 pixels\r\nHeight                                   : 400 pixels\r\nDisplay aspect ratio                     : 16:9\r\nFrame rate mode                          : Constant\r\nFrame rate                               : 24.000 fps\r\nBit depth                                : 8 bits\r\nStream size                              : 283 MiB (94%)\r\nWriting library                          : x264\r\n\r\nAudio\r\nFormat                                   : AAC\r\nBit rate mode                            : Variable\r\nBit rate                                 : 32.0 Kbps\r\nChannel(s)                               : 2 channels\r\nChannel positions                        : Front: L R\r\nSampling rate                            : 48.0 KHz\r\nFrame rate                               : 23.438 fps\r\nStream size                              : 17.4 MiB (6%)\r\nLanguage                                 : English\r\n\r\nSubtitle                                 : N/a\r\n\r\nScreen Shot: (Click to view)\r\n \nhttp://ititli.com/XoP \nhttp://ititli.com/Xof \nhttp://ititli.com/Xou \nhttp://ititli.com/Xov \nhttp://ititli.com/XoR \nhttp://ititli.com/Xoy \nhttp://ititli.com/Xo3 \nhttp://ititli.com/XoE \nhttp://ititli.com/XoQ\r\n\r\n----------------------------------------------------------------------------------------------------\r\n\r\n\r\nEncoder Notes: Looking For Early Access To Anything You Can Provide WEBDL, DVDScr, DVDR, BluRay,\r\nDirect Audio, Music Releases and Seedboxes. If You Got anything to offer please contact us.\r\n\r\nSupport us by donating BC - 1FgwdzPsd1y25Gea8wP1qni35uGCtmkRCD\r\nFind us and join us!","torrent":{"xt":"urn:btih:773fc457dd59283730ef1a6d031a3fb29ea15d9d","amp;dn":"Kung.Fu.Panda.3.2016.WEBRip.480p.x264.AAC-VYTO+%5BP2PDL%5D","amp;tr":["udp%3A%2F%2Ftracker.leechers-paradise.org%3A6969","udp%3A%2F%2Fzer0day.ch%3A1337","udp%3A%2F%2Fopen.demonii.com%3A1337","udp%3A%2F%2Ftracker.coppersurfer.tk%3A6969","udp%3A%2F%2Fexodus.desync.com%3A6969"],"infoHash":"773fc457dd59283730ef1a6d031a3fb29ea15d9d","infoHashBuffer":{"type":"Buffer","data":[119,63,196,87,221,89,40,55,48,239,26,109,3,26,63,178,158,161,93,157]},"announce":[],"urlList":[]}}